<?xml version="1.0" encoding="iso-8859-1"?>
<!-- Generator: Adobe Illustrator 19.0.0, SVG Export Plug-In . SVG Version: 6.00 Build 0)  -->
<svg version="1.1" id="Capa_1" xmlns="http://www.w3.org/2000/svg" xmlns:xlink="http://www.w3.org/1999/xlink" x="0px" y="0px"
	 viewBox="0 0 512 512" style="enable-background:new 0 0 512 512;" xml:space="preserve">
<path style="fill:#17ACE8;" d="M286,90h-60c-8.401,0-15,6.599-15,15v107c0,8.399,6.599,15,15,15h60c8.401,0,15-6.601,15-15V105
	C301,96.599,294.401,90,286,90z"/>
<path style="fill:#FD3018;" d="M316,45H196c-8.401,0-15,6.599-15,15v15c0,24.899,20.098,45,45,45h60c24.902,0,45-20.101,45-45V60
	C331,51.599,324.401,45,316,45z"/>
<path style="fill:#1689FC;" d="M286,227h-30V90h30c8.401,0,15,6.599,15,15v107C301,220.399,294.401,227,286,227z"/>
<path style="fill:#E61E14;" d="M286,120h-30V45h60c8.401,0,15,6.599,15,15v15C331,99.899,310.902,120,286,120z"/>
<path style="fill:#FD4321;" d="M421,0H91C74.431,0,61,13.431,61,30c0,16.567,13.431,30,30,30h330c16.569,0,30-13.433,30-30
	C451,13.431,437.569,0,421,0z"/>
<path style="fill:#FD3018;" d="M421,0H256v60h165c16.567,0,30-13.433,30-30C451,13.431,437.567,0,421,0z"/>
<path style="fill:#1BD9DE;" d="M497,302H365.501c-10.199-6.901-21.903-12.601-34.501-17.1V242c0-8.401-6.599-15-15-15H196
	c-8.401,0-15,6.599-15,15v42.9c-12.598,4.499-24.302,10.199-34.501,17.1H15c-8.291,0-15,6.709-15,15v150c0,8.291,6.709,15,15,15
	h131.499c30,19.499,68.701,30,109.501,30s79.501-10.501,109.501-30H497c8.291,0,15-6.709,15-15V317C512,308.709,505.291,302,497,302
	z"/>
<path style="fill:#15B7BE;" d="M497,302H365.501c-10.199-6.901-21.903-12.601-34.501-17.1V242c0-8.401-6.599-15-15-15h-60v285
	c40.8,0,79.501-10.501,109.501-30H497c8.291,0,15-6.709,15-15V317C512,308.709,505.291,302,497,302z"/>
<g>
	<path style="fill:#B7E0F6;" d="M91,272c-16.569,0-30,13.431-30,30v180c0,16.567,13.431,30,30,30s30-13.433,30-30V302
		C121,285.431,107.569,272,91,272z"/>
	<path style="fill:#B7E0F6;" d="M421,272c-16.569,0-30,13.431-30,30v180c0,16.567,13.431,30,30,30s30-13.433,30-30V302
		C451,285.431,437.569,272,421,272z"/>
	<path style="fill:#B7E0F6;" d="M151,212c0,16.567,13.431,30,30,30h150c16.569,0,30-13.433,30-30c0-16.569-13.431-30-30-30H181
		C164.431,182,151,195.431,151,212z"/>
</g>
<path style="fill:#A4D9F5;" d="M331,182h-75v60h75c16.567,0,30-13.433,30-30C361,195.431,347.567,182,331,182z"/>
<g>
</g>
<g>
</g>
<g>
</g>
<g>
</g>
<g>
</g>
<g>
</g>
<g>
</g>
<g>
</g>
<g>
</g>
<g>
</g>
<g>
</g>
<g>
</g>
<g>
</g>
<g>
</g>
<g>
</g>
</svg>
